<svg id="cow-404" xmlns="http://www.w3.org/2000/svg" xmlns:xlink="http://www.w3.org/1999/xlink" viewBox="0 0 512 490.366270" shape-rendering="geometricPrecision" text-rendering="geometricPrecision"><style><![CDATA[#cow-404-callout-1_to {animation: cow-404-callout-1_to__to 3000ms linear infinite normal forwards}@keyframes cow-404-callout-1_to__to { 0% {transform: translate(-18.175265px,103.575797px)} 13.333333% {transform: translate(-18.175265px,103.575797px)} 16.666667% {transform: translate(-8.699265px,79.281220px)} 20% {transform: translate(-18.175265px,106.096518px)} 23.333333% {transform: translate(-8.699265px,79.281220px)} 26.666667% {transform: translate(-18.175265px,106.096518px)} 100% {transform: translate(-18.175265px,106.096518px)} }#cow-404-callout-1_tr {animation: cow-404-callout-1_tr__tr 3000ms linear infinite normal forwards}@keyframes cow-404-callout-1_tr__tr { 0% {transform: rotate(100deg)} 6.666667% {transform: rotate(100deg)} 13.333333% {transform: rotate(0deg)} 100% {transform: rotate(0deg)} }#cow-404-callout-1_ts {animation: cow-404-callout-1_ts__ts 3000ms linear infinite normal forwards}@keyframes cow-404-callout-1_ts__ts { 0% {transform: scale(0.200000,0.200000)} 10% {transform: scale(0.200000,0.200000)} 13.333333% {transform: scale(1,1)} 100% {transform: scale(1,1)} }#cow-404-callout-1 {animation: cow-404-callout-1_c_o 3000ms linear infinite normal forwards}@keyframes cow-404-callout-1_c_o { 0% {opacity: 0} 6.666667% {opacity: 0} 10% {opacity: 1} 40% {opacity: 1} 43.333333% {opacity: 0} 100% {opacity: 0} }#cow-404-callout-2_to {animation: cow-404-callout-2_to__to 3000ms linear infinite normal forwards}@keyframes cow-404-callout-2_to__to { 0% {transform: translate(-18.175265px,103.575797px)} 50% {transform: translate(-18.175265px,103.575797px)} 53.333333% {transform: translate(-8.699265px,79.281220px)} 56.666667% {transform: translate(-18.175265px,106.096518px)} 60% {transform: translate(-8.699265px,79.281220px)} 63.333333% {transform: translate(-18.175265px,106.096518px)} 100% {transform: translate(-18.175265px,106.096518px)} }#cow-404-callout-2_tr {animation: cow-404-callout-2_tr__tr 3000ms linear infinite normal forwards}@keyframes cow-404-callout-2_tr__tr { 0% {transform: rotate(100deg)} 43.333333% {transform: rotate(100deg)} 50% {transform: rotate(0deg)} 100% {transform: rotate(0deg)} }#cow-404-callout-2_ts {animation: cow-404-callout-2_ts__ts 3000ms linear infinite normal forwards}@keyframes cow-404-callout-2_ts__ts { 0% {transform: scale(0.200000,0.200000)} 46.666667% {transform: scale(0.200000,0.200000)} 50% {transform: scale(1,1)} 100% {transform: scale(1,1)} }#cow-404-callout-2 {animation: cow-404-callout-2_c_o 3000ms linear infinite normal forwards}@keyframes cow-404-callout-2_c_o { 0% {opacity: 0} 43.333333% {opacity: 0} 46.666667% {opacity: 1} 80% {opacity: 1} 83.333333% {opacity: 0} 100% {opacity: 0} }]]></style><path id="cow-404-path81" d="M143.240990,476.366260L143.240990,387.128260L133.667990,387.128260C117.429990,387.128260,104.218990,373.917260,104.218990,357.678260L103.218990,357.678260L103.218990,476.366260Z" fill="rgb(234,155,88)" stroke="none" stroke-width="1"/><path id="cow-404-path83" d="M123.519990,476.366260L123.519990,385.325260C112.266990,381.181260,104.218990,370.352260,104.218990,357.678260L103.218990,357.678260L103.218990,476.366260Z" fill="rgb(197,122,68)" stroke="none" stroke-width="1"/><path id="cow-404-path85" d="M353.887990,387.128260L393.910990,387.128260L393.910990,476.366260L353.887990,476.366260Z" fill="rgb(216,138,85)" stroke="none" stroke-width="1"/><path id="cow-404-path87" d="M353.887990,387.128260L374.189990,387.128260L374.189990,476.366260L353.887990,476.366260Z" fill="rgb(197,122,68)" stroke="none" stroke-width="1"/><path id="cow-404-path89" d="M353.887990,451.144260L393.910990,451.144260L393.910990,476.366260L353.887990,476.366260Z" fill="rgb(50,86,157)" stroke="none" stroke-width="1"/><path id="cow-404-path91" d="M353.887990,451.144260L374.189990,451.144260L374.189990,476.366260L353.887990,476.366260Z" fill="rgb(48,58,120)" stroke="none" stroke-width="1"/><path id="cow-404-path93" d="M133.667990,388.128260L173.112990,388.128260C178.718990,388.128260,183.262990,392.672260,183.262990,398.278260L183.262990,476.366260L223.285990,476.366260L223.285990,398.278260C223.285990,392.672260,227.829990,388.128260,233.435990,388.128260L423.782990,388.128260C429.388990,388.128260,433.932990,392.672260,433.932990,398.278260L433.932990,476.366260L473.955990,476.366260L473.955990,211.615260C473.955990,172.375260,442.145990,140.565260,402.905990,140.565260L249.256990,140.565260C242.161990,149.184260,231.430990,154.487260,219.899990,154.487260C215.913990,154.487260,211.962990,153.859260,208.158990,152.621260L206.848990,152.195260L206.848990,204.194260C206.848990,218.682260,202.802990,232.869260,195.149990,245.220260L194.917990,245.594260L195.036990,246.017260C195.923990,249.180260,196.373990,252.434260,196.373990,255.688260L196.373990,259.635260C196.373990,279.525260,180.191990,295.706260,160.302990,295.706260L103.218990,295.706260L103.218990,357.678260C103.217990,374.495260,116.850990,388.128260,133.667990,388.128260Z" fill="rgb(234,155,88)" stroke="none" stroke-width="1"/><path id="cow-404-path95" d="M133.670990,357.678260L133.670990,295.706260L103.217990,295.706260L103.217990,357.678260C103.217990,374.495260,116.850990,388.128260,133.667990,388.128260L164.120990,388.128260C147.303990,388.128260,133.670990,374.495260,133.670990,357.678260Z" fill="rgb(216,138,85)" stroke="none" stroke-width="1"/><path id="cow-404-path97" d="M96.116994,117.528260L96.116994,90.999259C96.116994,83.818259,90.240994,77.942259,83.059994,77.942259L81.669994,77.942259C74.488994,77.942259,68.612994,83.818259,68.612994,90.999259L68.612994,117.528260Z" fill="rgb(237,202,178)" stroke="none" stroke-width="1"/><path id="cow-404-path99" d="M188.452990,117.528260L188.452990,90.999259C188.452990,83.818259,182.576990,77.942259,175.395990,77.942259L174.005990,77.942259C166.824990,77.942259,160.948990,83.818259,160.948990,90.999259L160.948990,117.528260Z" fill="rgb(237,202,178)" stroke="none" stroke-width="1"/><path id="cow-404-path101" d="M246.870990,116.528260L206.849990,116.528260L206.849990,153.239260C210.930990,154.690260,215.321990,155.486260,219.900990,155.486260C236.653990,155.486260,250.936990,144.912260,256.439990,130.074260C258.876990,123.502260,253.880990,116.528260,246.870990,116.528260Z" fill="rgb(246,169,108)" stroke="none" stroke-width="1"/><path id="cow-404-path103" d="M50.215994,116.528260L10.194994,116.528260C3.183994,116.528260,-1.812006,123.502260,0.625994,130.075260C6.128994,144.913260,20.411994,155.487260,37.164994,155.487260C41.743994,155.487260,46.134994,154.691260,50.215994,153.240260Z" fill="rgb(246,169,108)" stroke="none" stroke-width="1"/><path id="cow-404-path105" d="M20.927994,130.075260C18.489994,123.502260,23.485994,116.528260,30.496994,116.528260L10.194994,116.528260C3.183994,116.528260,-1.812006,123.502260,0.625994,130.075260C6.128994,144.913260,20.411994,155.487260,37.164994,155.487260C40.675994,155.487260,44.074994,155.015260,47.310994,154.144260C35.110994,150.858260,25.276994,141.801260,20.927994,130.075260Z" fill="rgb(234,155,88)" stroke="none" stroke-width="1"/><path id="cow-404-path107" d="M49.215994,116.528260L49.215994,204.194260C49.215994,219.879260,53.848994,234.525260,61.786994,246.869260C65.731994,231.229260,79.914994,219.617260,96.762994,219.617260L160.303990,219.617260C177.151990,219.617260,191.334990,231.229260,195.279990,246.868260C203.217990,234.524260,207.849990,219.878260,207.849990,204.193260L207.849990,116.528260Z" fill="rgb(216,138,85)" stroke="none" stroke-width="1"/><path id="cow-404-path109" d="M81.911994,222.829260C80.455994,216.846260,79.667994,210.609260,79.667994,204.194260L79.667994,116.528260L49.215994,116.528260L49.215994,204.194260C49.215994,219.879260,53.848994,234.525260,61.785994,246.869260C64.491994,236.142260,72.016994,227.319260,81.911994,222.829260Z" fill="rgb(197,122,68)" stroke="none" stroke-width="1"/><path id="cow-404-path111" d="M94.863994,195.668260C90.720994,195.668260,87.363994,192.310260,87.363994,188.168260L87.363994,172.863260C87.363994,168.721260,90.720994,165.363260,94.863994,165.363260C99.006994,165.363260,102.363990,168.721260,102.363990,172.863260L102.363990,188.168260C102.363990,192.310260,99.006994,195.668260,94.863994,195.668260Z" fill="rgb(48,58,120)" stroke="none" stroke-width="1"/><path id="cow-404-path113" d="M162.199990,195.668260C158.056990,195.668260,154.699990,192.310260,154.699990,188.168260L154.699990,172.863260C154.699990,168.721260,158.056990,165.363260,162.199990,165.363260C166.342990,165.363260,169.699990,168.721260,169.699990,172.863260L169.699990,188.168260C169.699990,192.310260,166.342990,195.668260,162.199990,195.668260Z" fill="rgb(48,58,120)" stroke="none" stroke-width="1"/><path id="cow-404-path115" d="M160.302990,296.706260L96.761994,296.706260C76.372994,296.706260,59.690994,280.024260,59.690994,259.635260L59.690994,255.688260C59.690994,235.299260,76.372994,218.617260,96.761994,218.617260L160.302990,218.617260C180.691990,218.617260,197.373990,235.299260,197.373990,255.688260L197.373990,259.635260C197.373990,280.024260,180.691990,296.706260,160.302990,296.706260Z" fill="rgb(245,226,212)" stroke="none" stroke-width="1"/><path id="cow-404-path117" d="M82.022994,259.075260L82.022994,256.247260C82.022994,235.550260,98.956994,218.617260,119.652990,218.617260L97.320994,218.617260C76.623994,218.617260,59.690994,235.551260,59.690994,256.247260L59.690994,259.075260C59.690994,279.772260,76.624994,296.705260,97.320994,296.705260L119.652990,296.705260C98.956994,296.706260,82.022994,279.772260,82.022994,259.075260Z" fill="rgb(237,202,178)" stroke="none" stroke-width="1"/><path id="cow-404-path119" d="M262.465990,476.366260L262.465990,461.838260C262.465990,457.696260,259.108990,454.338260,254.965990,454.338260C250.822990,454.338260,247.465990,457.696260,247.465990,461.838260L247.465990,476.366260Z" fill="rgb(9,167,109)" stroke="none" stroke-width="1"/><path id="cow-404-path121" d="M311.185990,476.366260L311.185990,461.838260C311.185990,457.696260,307.828990,454.338260,303.685990,454.338260C299.542990,454.338260,296.185990,457.696260,296.185990,461.838260L296.185990,476.366260Z" fill="rgb(9,167,109)" stroke="none" stroke-width="1"/><path id="cow-404-path123" d="M64.539994,476.366260L64.539994,461.838260C64.539994,457.696260,61.182994,454.338260,57.039994,454.338260C52.896994,454.338260,49.539994,457.696260,49.539994,461.838260L49.539994,476.366260Z" fill="rgb(9,167,109)" stroke="none" stroke-width="1"/><g id="cow-404-g131" transform="matrix(1 0 0 1 -0.00000600000000 28.15430000000000)"><path id="cow-404-path125" d="M108.232000,233.360000L96.052000,233.360000C91.909000,233.360000,88.552000,230.002000,88.552000,225.860000C88.552000,221.718000,91.909000,218.360000,96.052000,218.360000L108.232000,218.360000C112.375000,218.360000,115.732000,221.718000,115.732000,225.860000C115.732000,230.002000,112.375000,233.360000,108.232000,233.360000Z" fill="rgb(50,86,157)" stroke="none" stroke-width="1"/><path id="cow-404-path127" d="M161.013000,233.360000L148.833000,233.360000C144.690000,233.360000,141.333000,230.002000,141.333000,225.860000C141.333000,221.718000,144.690000,218.360000,148.833000,218.360000L161.013000,218.360000C165.156000,218.360000,168.513000,221.718000,168.513000,225.860000C168.513000,230.002000,165.155000,233.360000,161.013000,233.360000Z" fill="rgb(50,86,157)" stroke="none" stroke-width="1"/><path id="cow-404-path129" d="M103.218000,422.990000L143.241000,422.990000L143.241000,448.212000L103.218000,448.212000Z" fill="rgb(50,86,157)" stroke="none" stroke-width="1"/></g><path id="cow-404-path133" d="M103.217990,451.144260L123.519990,451.144260L123.519990,476.366260L103.217990,476.366260Z" fill="rgb(48,58,120)" stroke="none" stroke-width="1"/><path id="cow-404-path135" d="M433.932990,451.144260L473.955990,451.144260L473.955990,476.366260L433.932990,476.366260Z" fill="rgb(50,86,157)" stroke="none" stroke-width="1"/><path id="cow-404-path137" d="M433.932990,451.144260L454.234990,451.144260L454.234990,476.366260L433.932990,476.366260Z" fill="rgb(48,58,120)" stroke="none" stroke-width="1"/><path id="cow-404-path139" d="M183.263990,451.144260L223.286990,451.144260L223.286990,476.366260L183.263990,476.366260Z" fill="rgb(50,86,157)" stroke="none" stroke-width="1"/><path id="cow-404-path141" d="M183.263990,451.144260L203.565990,451.144260L203.565990,476.366260L183.263990,476.366260Z" fill="rgb(48,58,120)" stroke="none" stroke-width="1"/><path id="cow-404-path143" d="M504.499990,475.366260L335.545990,475.366260L335.545990,461.838260C335.545990,457.696260,332.188990,454.338260,328.045990,454.338260C323.902990,454.338260,320.545990,457.696260,320.545990,461.838260L320.545990,475.366260L286.825990,475.366260L286.825990,461.838260C286.825990,457.696260,283.468990,454.338260,279.325990,454.338260C275.182990,454.338260,271.825990,457.696260,271.825990,461.838260L271.825990,475.366260L85.854994,475.366260L85.854994,461.838260C85.854994,457.696260,82.497994,454.338260,78.354994,454.338260C74.211994,454.338260,70.854994,457.696260,70.854994,461.838260L70.854994,475.366260L39.504994,475.366260C35.361994,475.366260,32.004994,478.724260,32.004994,482.866260C32.004994,487.008260,35.361994,490.366260,39.504994,490.366260L504.499990,490.366260C508.642990,490.366260,511.999990,487.008260,511.999990,482.866260C511.999990,478.724260,508.642990,475.366260,504.499990,475.366260Z" fill="rgb(139,199,39)" stroke="none" stroke-width="1"/><text id="cow-404-text174" dx="0" dy="0" font-family="sans-serif" font-size="13.333300" transform="matrix(1 0 0 1 417.30945000000003 486.94089000000002)" fill="rgb(9,167,109)" stroke="none" stroke-width="1"><tspan id="cow-404-tspan172" x="0" y="0" font-family="sans-serif" font-size="13.333300" fill="rgb(9,167,109)" stroke="none" stroke-width="1"><![CDATA[sapikuda.com]]></tspan></text><g id="cow-404-callout-1_to" transform="translate(-18.175265,103.575797)"><g id="cow-404-callout-1_tr" transform="rotate(100)"><g id="cow-404-callout-1_ts" transform="scale(0.200000,0.200000)"><g id="cow-404-callout-1" transform="translate(0,0)" opacity="0"><path id="cow-404-path154" d="M370.921600,-28.154259C300.121579,-28.154058,242.727002,9.848329,242.727070,56.726549C242.727710,73.834367,250.535923,90.542794,265.127970,104.661180L243.877320,119.876700L215.549250,140.163270L265.500870,124.244830L282.570720,118.227000C306.400900,133.236122,338.031997,141.606680,370.921600,141.607350C441.721620,141.607153,499.116202,103.604769,499.116140,56.726549C499.116208,9.848326,441.721625,-28.154062,370.921600,-28.154259Z" fill="rgb(242,242,242)" fill-rule="evenodd" stroke="none" stroke-width="1.282940"/><text id="cow-404-text178" dx="0" dy="0" font-family="sans-serif" font-size="29.333300" transform="matrix(1 0 0 1 288.58749600000004 22.65623300000019)" fill="rgb(0,0,0)" stroke="none" stroke-width="1"><tspan id="cow-404-tspan1" x="0" y="0" font-family="sans-serif" font-size="29.333300" fill="rgb(0,0,0)" stroke="none" stroke-width="1"><![CDATA[      Sorry,]]></tspan><tspan id="cow-404-tspan2" x="0" y="29.3333" font-family="sans-serif" font-size="29.333300" fill="rgb(0,0,0)" stroke="none" stroke-width="1"><![CDATA[but the page]]></tspan><tspan id="cow-404-tspan3" x="0" y="58.6666" font-family="sans-serif" font-size="29.333300" fill="rgb(0,0,0)" stroke="none" stroke-width="1"><![CDATA[   could not]]></tspan><tspan id="cow-404-tspan4" x="0" y="87.9999" font-family="sans-serif" font-size="29.333300" fill="rgb(0,0,0)" stroke="none" stroke-width="1"><![CDATA[   be found]]></tspan></text></g></g></g></g><g id="cow-404-callout-2_to" transform="translate(-18.175265,103.575797)"><g id="cow-404-callout-2_tr" transform="rotate(100)"><g id="cow-404-callout-2_ts" transform="scale(0.200000,0.200000)"><g id="cow-404-callout-2" transform="translate(0,0)" opacity="0"><path id="cow-404-path154-4" d="M374.314260,318.699300C303.514238,318.699099,246.119661,280.696711,246.119730,233.818490C246.120373,216.710676,253.928586,200.002253,268.520630,185.883870L247.269980,170.668340L218.941910,150.381780L268.893530,166.300210L285.963380,172.318040C309.793560,157.308918,341.424657,148.938360,374.314260,148.937690C445.114280,148.937887,502.508861,186.940270,502.508800,233.818490C502.508869,280.696714,445.114286,318.699103,374.314260,318.699300Z" fill="rgb(242,242,242)" fill-rule="evenodd" stroke="none" stroke-width="1.282940"/><text id="cow-404-text178-9" dx="0" dy="0" font-family="sans-serif" font-size="29.333300" transform="matrix(1 0 0 1 289.41655849999995 216.65045999999990)" fill="rgb(0,0,0)" stroke="none" stroke-width="1"><tspan id="cow-404-tspan5" x="0" y="0" font-family="sans-serif" font-size="29.333300" fill="rgb(0,0,0)" stroke="none" stroke-width="1"><![CDATA[ Click me to]]></tspan><tspan id="cow-404-tspan6" x="0" y="29.3333" font-family="sans-serif" font-size="29.333300" fill="rgb(0,0,0)" stroke="none" stroke-width="1"><![CDATA[      return]]></tspan><tspan id="cow-404-tspan7" x="0" y="58.6666" font-family="sans-serif" font-size="29.333300" fill="rgb(0,0,0)" stroke="none" stroke-width="1"><![CDATA[to main page]]></tspan></text></g></g></g></g></svg>