<svg xmlns="http://www.w3.org/2000/svg" viewBox="0 0 512 512"  fill="gray" xmlns:v="https://vecta.io/nano"><path d="M512 16V0h-30v16c0 37.738-27.652 69.126-63.756 75H93.756C57.652 85.126 30 53.738 30 16V0H0v16c0 33.8 15.902 63.956 40.618 83.379C16.517 111.868 0 137.033 0 166v46h46c18.932 0 36.235-7.066 49.447-18.679l11.204 219.043C109.509 468.235 155.571 512 211.514 512h88.972c55.943 0 102.005-43.765 104.863-99.636l11.204-219.043C429.765 204.934 447.068 212 466 212h46v-46c0-28.967-16.517-54.132-40.618-66.621C496.098 79.956 512 49.8 512 16zM91 137c0 24.813-20.187 45-45 45H30v-16c0-24.813 20.187-45 45-45h16v16zm284.388 273.832C373.347 450.739 340.446 482 300.486 482h-88.972c-39.96 0-72.861-31.261-74.902-71.169l-1.344-26.279C166.454 351.087 210.116 332 256 332s89.545 19.087 120.732 52.552l-1.344 26.28zm3.342-65.342C344.259 317.565 301.038 302 256 302s-88.259 15.565-122.73 43.49L121.787 121h268.426L378.73 345.49zM482 166v16h-16c-24.813 0-45-20.187-45-45v-16h16c24.813 0 45 20.187 45 45z"/><circle cx="206" cy="432" r="20"/><circle cx="306" cy="432" r="20"/><circle cx="176" cy="226" r="20"/><circle cx="336" cy="226" r="20"/></svg>